<svg xmlns="http://www.w3.org/2000/svg" width="178.572" height="178.572"><g fill="#ff0038" data-name="Raggruppa 35821"><g data-name="Raggruppa 35819" opacity=".534"><path d="M152.421 26.152a89.286 89.286 0 1 1-126.269 0 89.285 89.285 0 0 1 126.269 0" data-name="Tracciato 17336" opacity=".705" style="mix-blend-mode:soft-light;isolation:isolate" transform="translate(0 .001)"/><path d="M110.4 23.359a61.548 61.548 0 1 1-87.042 0 61.55 61.55 0 0 1 87.042 0" data-name="Tracciato 17337" opacity=".705" style="mix-blend-mode:soft-light;isolation:isolate" transform="translate(22.406 22.406)"/><path d="M69.6 20.65a34.612 34.612 0 1 1-48.948 0 34.61 34.61 0 0 1 48.948 0" data-name="Tracciato 17338" opacity=".695" style="mix-blend-mode:soft-light;isolation:isolate" transform="translate(44.163 44.162)"/></g><g data-name="Raggruppa 35820"><path d="M85.353 14.644a50 50 0 1 1-70.709 0 50 50 0 0 1 70.709 0" data-name="Tracciato 17336" opacity=".705" style="mix-blend-mode:soft-light;isolation:isolate" transform="translate(39.288 39.288)"/><path d="M64.17 15.428a34.466 34.466 0 1 1-48.742 0 34.467 34.467 0 0 1 48.742 0" data-name="Tracciato 17337" opacity=".705" style="mix-blend-mode:soft-light;isolation:isolate" transform="translate(49.488 49.488)"/><path d="M43.6 16.189a19.382 19.382 0 1 1-27.41 0 19.381 19.381 0 0 1 27.41 0" data-name="Tracciato 17338" opacity=".996" style="mix-blend-mode:soft-light;isolation:isolate" transform="translate(59.393 59.392)"/></g></g></svg>