<svg xmlns="http://www.w3.org/2000/svg" width="305.857" height="60.728"><defs><clipPath id="a"><path fill="none" d="M0 0h305.857v60.728H0z" data-name="Rettangolo 3"/></clipPath></defs><g clip-path="url(#a)" data-name="Logo RAV"><path d="M87.49 25.134a7.029 7.029 0 0 0 4.8-1.421q1.6-1.422 1.6-4.619a5.636 5.636 0 0 0-1.6-4.469 7.136 7.136 0 0 0-4.8-1.392H77.306v11.9Zm3.316-19.125a13.655 13.655 0 0 1 5.123.917 11.812 11.812 0 0 1 3.907 2.517 10.949 10.949 0 0 1 2.486 3.7 11.856 11.856 0 0 1 .859 4.531 12.716 12.716 0 0 1-1.569 6.453 9.853 9.853 0 0 1-5.121 4.144v.118a7.216 7.216 0 0 1 2.843 1.452 8.019 8.019 0 0 1 1.834 2.307 10.8 10.8 0 0 1 1.037 2.932 25.619 25.619 0 0 1 .442 3.2q.059 1.008.12 2.368c.037.909.108 1.836.205 2.782a18.739 18.739 0 0 0 .475 2.7 6.163 6.163 0 0 0 .977 2.16h-9.3a16.391 16.391 0 0 1-.946-4.8q-.177-2.783-.533-5.329a8.422 8.422 0 0 0-2.012-4.856q-1.541-1.54-5.034-1.539h-9.3v16.518h-9.3V6.009Zm16.637 16.164a10.1 10.1 0 0 1 3.316-3.137 14.384 14.384 0 0 1 4.53-1.687 25.732 25.732 0 0 1 5.063-.5 34.531 34.531 0 0 1 4.679.326 14.356 14.356 0 0 1 4.322 1.272 8.547 8.547 0 0 1 3.2 2.635 7.372 7.372 0 0 1 1.243 4.471v15.924a32.039 32.039 0 0 0 .237 3.967 7.16 7.16 0 0 0 .828 2.841h-8.526a11.844 11.844 0 0 1-.384-1.45 12.5 12.5 0 0 1-.207-1.509 10.946 10.946 0 0 1-4.737 2.9 19.03 19.03 0 0 1-5.565.828 14.961 14.961 0 0 1-4.086-.533 9.353 9.353 0 0 1-3.316-1.656 7.721 7.721 0 0 1-2.22-2.843 9.607 9.607 0 0 1-.8-4.086 8.921 8.921 0 0 1 .919-4.293 7.648 7.648 0 0 1 2.367-2.693 10.6 10.6 0 0 1 3.316-1.511 35.623 35.623 0 0 1 3.76-.8q1.9-.3 3.731-.475a22.17 22.17 0 0 0 3.256-.531 5.67 5.67 0 0 0 2.251-1.037 2.28 2.28 0 0 0 .77-1.984 4.476 4.476 0 0 0-.444-2.16 3.257 3.257 0 0 0-1.185-1.243 4.671 4.671 0 0 0-1.718-.593 14.187 14.187 0 0 0-2.1-.148 6.373 6.373 0 0 0-3.907 1.067 4.754 4.754 0 0 0-1.665 3.549h-8.408a9.785 9.785 0 0 1 1.48-4.916m16.61 11.873a13.762 13.762 0 0 1-1.718.444q-.918.177-1.924.295c-.672.081-1.343.179-2.013.3a15.018 15.018 0 0 0-1.865.473 5.527 5.527 0 0 0-1.6.8 3.782 3.782 0 0 0-1.1 1.272 4.1 4.1 0 0 0-.415 1.955 3.96 3.96 0 0 0 .415 1.894 3.175 3.175 0 0 0 1.127 1.214 4.713 4.713 0 0 0 1.656.62 10.6 10.6 0 0 0 1.954.179 7.445 7.445 0 0 0 3.849-.828 5.559 5.559 0 0 0 2.013-1.984 6.334 6.334 0 0 0 .8-2.34 15.87 15.87 0 0 0 .15-1.894v-3.136a3.8 3.8 0 0 1-1.332.741m20.282 14.238-10.481-30.61h8.823l6.453 20.9h.118l6.455-20.9h8.347l-10.361 30.61Zm21.966-26.112a10.075 10.075 0 0 1 3.316-3.137 14.388 14.388 0 0 1 4.53-1.687 25.724 25.724 0 0 1 5.063-.5 34.481 34.481 0 0 1 4.677.326 14.325 14.325 0 0 1 4.322 1.272 8.518 8.518 0 0 1 3.2 2.635 7.356 7.356 0 0 1 1.245 4.471v15.925a31.654 31.654 0 0 0 .236 3.967 7.127 7.127 0 0 0 .828 2.841h-8.526a11.8 11.8 0 0 1-.384-1.45 11.965 11.965 0 0 1-.207-1.509 10.946 10.946 0 0 1-4.737 2.9 19.029 19.029 0 0 1-5.565.828 14.958 14.958 0 0 1-4.086-.533 9.335 9.335 0 0 1-3.316-1.656 7.727 7.727 0 0 1-2.222-2.843 9.645 9.645 0 0 1-.8-4.086 8.9 8.9 0 0 1 .919-4.293 7.652 7.652 0 0 1 2.368-2.693 10.607 10.607 0 0 1 3.316-1.511 35.626 35.626 0 0 1 3.76-.8q1.9-.3 3.731-.475a22.178 22.178 0 0 0 3.256-.531 5.67 5.67 0 0 0 2.252-1.037 2.272 2.272 0 0 0 .767-1.984 4.478 4.478 0 0 0-.442-2.16 3.271 3.271 0 0 0-1.185-1.243 4.674 4.674 0 0 0-1.718-.593 14.2 14.2 0 0 0-2.1-.148 6.371 6.371 0 0 0-3.907 1.067 4.752 4.752 0 0 0-1.658 3.553h-8.408a9.786 9.786 0 0 1 1.479-4.916m16.61 11.873a13.783 13.783 0 0 1-1.718.444q-.919.177-1.926.295a35.3 35.3 0 0 0-2.013.3 15.2 15.2 0 0 0-1.865.473 5.539 5.539 0 0 0-1.6.8 3.777 3.777 0 0 0-1.1 1.272 4.1 4.1 0 0 0-.409 1.955 3.96 3.96 0 0 0 .415 1.894 3.187 3.187 0 0 0 1.125 1.214 4.744 4.744 0 0 0 1.658.62 10.576 10.576 0 0 0 1.954.179 7.446 7.446 0 0 0 3.849-.828 5.565 5.565 0 0 0 2.013-1.984 6.335 6.335 0 0 0 .8-2.34 16.206 16.206 0 0 0 .147-1.894v-3.14a3.782 3.782 0 0 1-1.33.741m30.108 6.306a6.6 6.6 0 0 0 2.249-1.9 8.4 8.4 0 0 0 1.332-2.693 11.149 11.149 0 0 0 .444-3.169 17.381 17.381 0 0 0-.355-3.581 8.954 8.954 0 0 0-1.185-2.99 6.155 6.155 0 0 0-2.191-2.073 6.919 6.919 0 0 0-3.433-.762 6.14 6.14 0 0 0-3.048.712 6.412 6.412 0 0 0-2.133 1.924 8.142 8.142 0 0 0-1.243 2.782 13.737 13.737 0 0 0-.384 3.287 16.647 16.647 0 0 0 .326 3.287 8.827 8.827 0 0 0 1.125 2.93 6.548 6.548 0 0 0 2.1 2.131 5.941 5.941 0 0 0 3.256.83 6.7 6.7 0 0 0 3.139-.71m11.516 10.184a10.4 10.4 0 0 1-2.162 4.411 12.9 12.9 0 0 1-4.8 3.463 20.667 20.667 0 0 1-8.408 1.421 19.694 19.694 0 0 1-4.59-.562 14.617 14.617 0 0 1-4.262-1.747 10.469 10.469 0 0 1-3.2-3.048 8.829 8.829 0 0 1-1.45-4.471h8.348a4.8 4.8 0 0 0 2.309 3.287 8.313 8.313 0 0 0 3.967.917q3.551 0 5.181-2.131a8.364 8.364 0 0 0 1.569-5.389v-4.03h-.118a8.333 8.333 0 0 1-3.878 3.581 12.569 12.569 0 0 1-5.3 1.154 13.347 13.347 0 0 1-5.917-1.213 11.21 11.21 0 0 1-4.086-3.316 13.85 13.85 0 0 1-2.339-4.914 23.274 23.274 0 0 1-.741-5.951 19.085 19.085 0 0 1 .859-5.715 14.936 14.936 0 0 1 2.517-4.853 12.161 12.161 0 0 1 4.115-3.347 12.369 12.369 0 0 1 5.655-1.243 11.842 11.842 0 0 1 5.3 1.125 9.158 9.158 0 0 1 3.82 3.791h.118v-4.087h7.993v28.658a20.591 20.591 0 0 1-.5 4.2m12.346-2.248h-8.408V6.007h8.408Zm4.5-42.276h8.4v6.928h-8.4Zm8.4 42.276h-8.4V17.672h8.4Zm10.9-11.692a9.561 9.561 0 0 0 1.214 3.137 6.457 6.457 0 0 0 2.28 2.22 6.941 6.941 0 0 0 3.552.83 7.106 7.106 0 0 0 3.581-.83 6.389 6.389 0 0 0 2.309-2.22 9.528 9.528 0 0 0 1.214-3.137 17.97 17.97 0 0 0 .357-3.583 18.393 18.393 0 0 0-.357-3.61 9.218 9.218 0 0 0-1.214-3.14 6.75 6.75 0 0 0-2.309-2.22 6.936 6.936 0 0 0-3.583-.855 6.471 6.471 0 0 0-5.833 3.079 9.25 9.25 0 0 0-1.214 3.14 18.36 18.36 0 0 0-.355 3.61 17.938 17.938 0 0 0 .355 3.583m-7.637-10.248a14 14 0 0 1 8.171-8.35 17.475 17.475 0 0 1 6.513-1.154 17.707 17.707 0 0 1 6.542 1.154 13.933 13.933 0 0 1 8.2 8.35 18.761 18.761 0 0 1 1.127 6.66 18.512 18.512 0 0 1-1.127 6.632 14.369 14.369 0 0 1-3.2 5.063 13.923 13.923 0 0 1-5.005 3.226 18.143 18.143 0 0 1-6.542 1.125 17.9 17.9 0 0 1-6.513-1.125 13.96 13.96 0 0 1-4.974-3.226 14.344 14.344 0 0 1-3.2-5.063 18.558 18.558 0 0 1-1.125-6.632 18.808 18.808 0 0 1 1.125-6.66m41.101 21.936h-8.408V6.007h8.408Zm3.316-42.276h8.408v6.928h-8.408Zm8.407 42.276h-8.408V17.672h8.408Z" data-name="Tracciato 14"/><path fill="#fff" d="m39.29 26.595-12.565-6.563 2.775-5.246-20.306 6.273A7.061 7.061 0 1 1 4.98 7.58L27.572.6A13.205 13.205 0 0 1 44.1 9.229a13.064 13.064 0 0 1-.917 10.026Zm-14.583 9.474-1.942-1.013 1.787 5.733ZM9.325 27.06a13.235 13.235 0 0 1 17.8-5.619L47.9 32.22a7.049 7.049 0 0 1-.28 12.672l.009 5.21-6.681 2.065-6.111-8.29-3.808 1.177L31 49.032l-3.8 1.174a3.185 3.185 0 0 1 .191.473l.917 2.94a.727.727 0 0 0 .083.079c.035.027.759.4.759.4l.95 1.415-5.918 1.828a1.934 1.934 0 0 1-2.243-1.384l-.772-2.476a1.272 1.272 0 0 0-1.606-.791l-1.521.471 1.728 5.542-6.534 2.019-5.4-17.3 2.43-.751-1.744-5.606a12.987 12.987 0 0 1 .805-10.005" data-name="Tracciato 15"/><path fill="#fff" d="m30.063 44.336-.027 3.98-4.494 1.388a2.574 2.574 0 0 1 .924 1.266l.927 2.971a1.177 1.177 0 0 0 .979.743l.2.293-4.671 1.442a.987.987 0 0 1-1.031-.745l-.775-2.478a2.243 2.243 0 0 0-2.818-1.428l-2.45.757 1.728 5.544-4.681 1.446-4.82-15.452 8.352-2.581c3.293-1.017 6.183-.183 7.094 2.739a4.381 4.381 0 0 1-.99 4.588 5.428 5.428 0 0 1 1.726.679l.6-18.26 5.138-1.588 11.294 15.277-.309-10.721 4.673-1.444.025 16.635-5.339 1.65-6.111-8.29Zm3-4.492-2.942-3.988-.035 4.907Zm-17.251 9.375 3.727-1.152a1.624 1.624 0 1 0-.967-3.1l-3.727 1.152Z" data-name="Tracciato 16"/><path fill="#fff" d="M9.446 36.776a12.027 12.027 0 0 1 .739-9.267 12.265 12.265 0 0 1 16.5-5.206l18.836 9.773-4.552 1.41.241 8.366-9.863-13.34-6.457 1.994-.145 4.49-3.6-1.878 2.552 8.18c-1.683-1.351-4.15-1.492-6.576-.743l-5.922 1.832Zm38.157-3.614a6.076 6.076 0 0 1 .015 10.645Zm-31.5 13.637 2.774-.857a.608.608 0 0 1 .463.043.6.6 0 0 1-.1 1.11l-2.776.857Zm26.232-28a12.1 12.1 0 0 0 .849-9.284 12.239 12.239 0 0 0-15.325-7.99L5.266 8.505a6.091 6.091 0 1 0 3.64 11.626l22.547-6.965-3.416 6.457 10.848 5.667Z" data-name="Tracciato 17"/><path fill="#fff" d="m39.29 26.595-12.565-6.563 2.775-5.246-20.306 6.273A7.061 7.061 0 1 1 4.98 7.58L27.572.6A13.205 13.205 0 0 1 44.1 9.229a13.064 13.064 0 0 1-.917 10.026Zm-14.583 9.474-1.942-1.013 1.787 5.733ZM9.325 27.06a13.235 13.235 0 0 1 17.8-5.619L47.9 32.22a7.049 7.049 0 0 1-.28 12.672l.009 5.21-6.681 2.065-6.111-8.29-3.808 1.177L31 49.032l-3.8 1.174a3.185 3.185 0 0 1 .191.473l.917 2.94a.727.727 0 0 0 .083.079c.035.027.759.4.759.4l.95 1.415-5.918 1.828a1.934 1.934 0 0 1-2.243-1.384l-.772-2.476a1.272 1.272 0 0 0-1.606-.791l-1.521.471 1.728 5.542-6.534 2.019-5.4-17.3 2.43-.751-1.744-5.606a12.987 12.987 0 0 1 .805-10.005" data-name="Tracciato 18"/><path fill="#c80010" d="m30.063 44.336-.027 3.98-4.494 1.388a2.574 2.574 0 0 1 .924 1.266l.927 2.971a1.177 1.177 0 0 0 .979.743l.2.293-4.671 1.442a.987.987 0 0 1-1.031-.745l-.775-2.478a2.243 2.243 0 0 0-2.818-1.428l-2.45.757 1.728 5.544-4.681 1.446-4.82-15.452 8.352-2.581c3.293-1.017 6.183-.183 7.094 2.739a4.381 4.381 0 0 1-.99 4.588 5.428 5.428 0 0 1 1.726.679l.6-18.26 5.138-1.588 11.294 15.277-.309-10.721 4.673-1.444.025 16.635-5.339 1.65-6.111-8.29Zm3-4.492-2.942-3.988-.035 4.907Zm-17.251 9.375 3.727-1.152a1.624 1.624 0 1 0-.967-3.1l-3.727 1.152Z" data-name="Tracciato 19"/><path fill="#005387" d="M9.446 36.776a12.027 12.027 0 0 1 .739-9.267 12.265 12.265 0 0 1 16.5-5.206l18.836 9.773-4.552 1.41.241 8.366-9.863-13.34-6.457 1.994-.145 4.49-3.6-1.878 2.552 8.18c-1.683-1.351-4.15-1.492-6.576-.743l-5.922 1.832Zm38.157-3.614a6.076 6.076 0 0 1 .015 10.645Zm-31.5 13.637 2.774-.857a.608.608 0 0 1 .463.043.6.6 0 0 1-.1 1.11l-2.776.857Zm26.232-28a12.1 12.1 0 0 0 .849-9.284 12.239 12.239 0 0 0-15.325-7.99L5.266 8.505a6.091 6.091 0 1 0 3.64 11.626l22.547-6.965-3.416 6.457 10.848 5.667Z" data-name="Tracciato 20"/></g></svg>