<svg xmlns="http://www.w3.org/2000/svg" xml:space="preserve" style="fill-rule:evenodd;clip-rule:evenodd;stroke-linejoin:round;stroke-miterlimit:2" viewBox="0 0 73 500"><path d="M49.04 529.5H23c-1.93 0-3.5-1.57-3.5-3.5s1.57-3.5 3.5-3.5h26.04c1.93 0 3.5 1.57 3.5 3.5s-1.57 3.5-3.5 3.5m3.5-176.13c0-1.93-1.57-3.5-3.5-3.5H23c-1.93 0-3.5 1.57-3.5 3.5s1.57 3.5 3.5 3.5h26.04c1.93 0 3.5-1.57 3.5-3.5m0-171.67c0-1.93-1.57-3.5-3.5-3.5H23c-1.93 0-3.5 1.57-3.5 3.5s1.57 3.5 3.5 3.5h26.04c1.93 0 3.5-1.57 3.5-3.5m0 314.3c0-1.93-1.57-3.5-3.5-3.5H23c-1.93 0-3.5 1.57-3.5 3.5s1.57 3.5 3.5 3.5h26.04c1.93 0 3.5-1.57 3.5-3.5m0-170.6c0-1.93-1.57-3.5-3.5-3.5H23c-1.93 0-3.5 1.57-3.5 3.5s1.57 3.5 3.5 3.5h26.04c1.93 0 3.5-1.57 3.5-3.5m0-172.63c0-1.93-1.57-3.5-3.5-3.5H23c-1.93 0-3.5 1.57-3.5 3.5s1.57 3.5 3.5 3.5h26.04c1.93 0 3.5-1.57 3.5-3.5m0 313.23c0-1.93-1.57-3.5-3.5-3.5H23c-1.93 0-3.5 1.57-3.5 3.5s1.57 3.5 3.5 3.5h26.04c1.93 0 3.5-1.57 3.5-3.5m0-169.53c0-1.93-1.57-3.5-3.5-3.5H23c-1.93 0-3.5 1.57-3.5 3.5s1.57 3.5 3.5 3.5h26.04c1.93 0 3.5-1.57 3.5-3.5m0-169.47c0-1.93-1.57-3.5-3.5-3.5H23c-1.93 0-3.5 1.57-3.5 3.5s1.57 3.5 3.5 3.5h26.04c1.93 0 3.5-1.57 3.5-3.5m0 310c0-1.93-1.57-3.5-3.5-3.5H23c-1.93 0-3.5 1.57-3.5 3.5s1.57 3.5 3.5 3.5h26.04c1.93 0 3.5-1.57 3.5-3.5m0-169.47c0-1.93-1.57-3.5-3.5-3.5H23c-1.93 0-3.5 1.57-3.5 3.5s1.57 3.5 3.5 3.5h26.04c1.93 0 3.5-1.57 3.5-3.5m0-169.53c0-1.93-1.57-3.5-3.5-3.5H23c-1.93 0-3.5 1.57-3.5 3.5s1.57 3.5 3.5 3.5h26.04c1.93 0 3.5-1.57 3.5-3.5m0 313.23c0-1.93-1.57-3.5-3.5-3.5H23c-1.93 0-3.5 1.57-3.5 3.5s1.57 3.5 3.5 3.5h26.04c1.93 0 3.5-1.57 3.5-3.5m0-172.63c0-1.93-1.57-3.5-3.5-3.5H23c-1.93 0-3.5 1.57-3.5 3.5s1.57 3.5 3.5 3.5h26.04c1.93 0 3.5-1.57 3.5-3.5m0-170.6c0-1.93-1.57-3.5-3.5-3.5H23c-1.93 0-3.5 1.57-3.5 3.5s1.57 3.5 3.5 3.5h26.04c1.93 0 3.5-1.57 3.5-3.5m0 314.3c0-1.93-1.57-3.5-3.5-3.5H23c-1.93 0-3.5 1.57-3.5 3.5s1.57 3.5 3.5 3.5h26.04c1.93 0 3.5-1.57 3.5-3.5m0-171.67c0-1.93-1.57-3.5-3.5-3.5H23c-1.93 0-3.5 1.57-3.5 3.5s1.57 3.5 3.5 3.5h26.04c1.93 0 3.5-1.57 3.5-3.5m0-172.63c0-1.93-1.57-3.5-3.5-3.5H23c-1.93 0-3.5 1.57-3.5 3.5s1.57 3.5 3.5 3.5h26.04c1.93 0 3.5-1.57 3.5-3.5" style="fill:#004a83;fill-rule:nonzero" transform="matrix(1 0 0 1.0101 .48 -34.849)"/></svg>