<svg xmlns="http://www.w3.org/2000/svg" width="178.572" height="178.572" viewBox="0 0 178.572 178.572">
  <g id="Raggruppa_35821" data-name="Raggruppa 35821" transform="translate(-732.712 -458.806)">
    <g id="Raggruppa_35819" data-name="Raggruppa 35819" transform="translate(-359.288 -34.287)" opacity="0.534">
      <path id="Tracciato_17336" data-name="Tracciato 17336" d="M152.421,26.152a89.286,89.286,0,1,1-126.269,0,89.285,89.285,0,0,1,126.269,0" transform="translate(1092 493.094)" fill="#0097F2" opacity="0.705" style="mix-blend-mode: soft-light;isolation: isolate"/>
      <path id="Tracciato_17337" data-name="Tracciato 17337" d="M110.4,23.359a61.548,61.548,0,1,1-87.042,0,61.55,61.55,0,0,1,87.042,0" transform="translate(1114.406 515.499)" fill="#0097F2" opacity="0.705" style="mix-blend-mode: soft-light;isolation: isolate"/>
      <path id="Tracciato_17338" data-name="Tracciato 17338" d="M69.6,20.65a34.612,34.612,0,1,1-48.948,0,34.61,34.61,0,0,1,48.948,0" transform="translate(1136.163 537.255)" fill="#0097F2" opacity="0.695" style="mix-blend-mode: soft-light;isolation: isolate"/>
    </g>
    <g id="Raggruppa_35820" data-name="Raggruppa 35820" transform="translate(-320 5)">
      <path id="Tracciato_17336-2" data-name="Tracciato 17336" d="M85.353,14.644a50,50,0,1,1-70.709,0,50,50,0,0,1,70.709,0" transform="translate(1092 493.094)" fill="#0097F2" opacity="0.705" style="mix-blend-mode: soft-light;isolation: isolate"/>
      <path id="Tracciato_17337-2" data-name="Tracciato 17337" d="M64.17,15.428a34.466,34.466,0,1,1-48.742,0,34.467,34.467,0,0,1,48.742,0" transform="translate(1102.2 503.294)" fill="#0097F2" opacity="0.705" style="mix-blend-mode: soft-light;isolation: isolate"/>
      <path id="Tracciato_17338-2" data-name="Tracciato 17338" d="M43.6,16.189a19.382,19.382,0,1,1-27.41,0,19.381,19.381,0,0,1,27.41,0" transform="translate(1112.105 513.198)" fill="#0097F2" opacity="0.996" style="mix-blend-mode: soft-light;isolation: isolate"/>
    </g>
  </g>
</svg>
