<svg id="Raggruppa_11110" data-name="Raggruppa 11110" xmlns="http://www.w3.org/2000/svg" xmlns:xlink="http://www.w3.org/1999/xlink" width="207.689" height="98.882" viewBox="0 0 207.689 98.882">
  <defs>
    <clipPath id="clip-path">
      <rect id="Rettangolo_4613" data-name="Rettangolo 4613" width="207.689" height="98.882" fill="none"/>
    </clipPath>
  </defs>
  <g id="Raggruppa_11109" data-name="Raggruppa 11109" clip-path="url(#clip-path)">
    <path id="Tracciato_2325" data-name="Tracciato 2325" d="M176.583,14.01C157.113,4.975,131.325,0,103.969,0,76.51,0,50.646,4.975,31.142,14.009,11.06,23.31,0,35.892,0,49.436S11.06,75.569,31.142,84.872c19.5,9.035,45.367,14.01,72.827,14.01,27.357,0,53.145-4.976,72.614-14.011,20.059-9.308,31.105-21.893,31.105-35.435s-11.046-26.12-31.106-35.426M103.969,96.6C47.9,96.6,2.287,75.519,2.287,49.436S47.9,2.287,103.969,2.287C159.8,2.287,205.4,23.363,205.4,49.436S159.8,96.6,103.969,96.6" fill="#fff"/>
    <path id="Tracciato_2326" data-name="Tracciato 2326" d="M105.94,4.258C49.874,4.258,4.258,25.334,4.258,51.407S49.874,98.566,105.94,98.566c55.827,0,101.433-21.076,101.433-47.159S161.768,4.258,105.94,4.258" transform="translate(-1.971 -1.971)" fill="#c00020"/>
    <path id="Tracciato_2327" data-name="Tracciato 2327" d="M205.9,83.875h2.312c.529,0,1.241,0,1.241,1.066s-.713,1.242-1.423,1.242H205.9Zm0,3.018h2.312a1.109,1.109,0,0,1,1.241,1.25,6.113,6.113,0,0,0,.177,1.779H210.7v-.184c-.353-.178-.353-.356-.353-.707V87.787a1.46,1.46,0,0,0-.893-1.25,1.655,1.655,0,0,0,.893-1.6c0-1.6-1.067-1.954-2.134-1.954h-3.2v6.936h.886Zm-4.312-.53a5.883,5.883,0,1,1,5.911,5.916,5.958,5.958,0,0,1-5.911-5.916m-.858,0a6.735,6.735,0,1,0,6.77-6.716,6.861,6.861,0,0,0-6.77,6.716M104.854,64.495c1.245,0,2.315,2.781,2.315,6.28,0,3.378-1.07,6.167-2.315,6.167s-2.257-2.79-2.257-6.167c0-3.5,1.018-6.28,2.257-6.28m.12-2.37c-5.162,0-11.73,1.241-12.623,6.76-1.777,10.3,13.336,12.441,20.977,9.06a7.666,7.666,0,0,0,4.087-10.669c-2.313-4.441-7.82-4.976-12.441-5.151m44.274,9.482c.766,0,1.414.893,1.414,2.015,0,1.188-.647,2.081-1.414,2.081s-1.425-.893-1.425-2.081c0-1.122.65-2.015,1.425-2.015m12.8-3.26c0-3.018-1.427-4.091-1.965-4.273-4.617-2.838-12.091-2.667-15.467-1.6-1.427.536-3.733,1.963-3.2,3.737.349,1.418,2.315,1.779,3.549,1.418,2.494-.525,1.781-2.3,3.024-3.021,1.779-.888,3.2,2.313,2.495,3.551-.716,1.075-6.753.357-7.827.721-2.132.522-4.267,1.949-4.969,3.91a5,5,0,0,0,4.262,6.571c6.574.538,6.927-1.068,8-1.068,1.958,0,1.958.889,2.481.889H160.8c2.67,0,1.247-.889,1.247-2.842Zm15.465,2.315a6.421,6.421,0,0,0,4.088,1.063c1.6,0,2.842-1.427,3.2-3.378s-.359-5.687-2.311-6.048c-3.383-.529-5.691,1.425-6.941,1.957l-.529-1.6H166.49c-2.661,0-1.24,1.415-1.24,2.842V76.346c0,1.6-1.776,2.842,1.24,2.842h8.534c2.492,0,1.248-.889,1.248-2.842l-.185-6.4ZM133.773,56.257c0-5.153-3.726-2.668-3.908-2.486-1.245,2.486-3.022,5.689-5.336,7.112a9.655,9.655,0,0,1-4.447,1.6c-1.946.182-2.31,3.024,1.247,4.094V76c.889,4.08,9.777,3.908,13.16,2.3a2.233,2.233,0,0,0-.716-3.73V66.215h2.668c1.254.177,1.956-3.379,0-3.554h-2.668Zm-56.9-.539V50.034c4.978-.182,5.515,5.869,4.27,9.426-.711,1.777-1.956,4.444-4.27,4.09Zm6.4,11.558c1.784-.534,9.966-1.594,12.267-7.107,1.427-2.674.186-8.539-2.663-10.67-1.245-1.061-4.448-2.665-9.063-2.665H62.12c-2.494.534-1.067,2.493-1.067,3.554V76c0,1.418-1.427,2.839,1.245,3.192H75.816c2.312,0,1.06-1.774,1.06-3.192V67.633C84.7,78.661,92.7,86.661,104.081,91.282c12.626,5.339,28.273,7.825,43.02,7.825a84.085,84.085,0,0,0,43.041-12.271c8.888-5.511,16.172-15.465,23.115-24.176H202.223c2.668,11.023-3.373,2.485-2.3,0H185.7c-.715,0,0,1.065,0,1.065.523,1.24,5.5,9.07,6.575,12.621,1.427,4.094-14.577,8.537-16.72,8.712-23.637,3.2-49.6,2.132-72.714-3.732-4.8-1.25-9.243-4.442-12.445-6.757a39.7,39.7,0,0,1-7.118-7.293" transform="translate(-28.074 -21.679)" fill="#fff"/>
  </g>
</svg>
